HIERARCHY
ROOT hip
{
  OFFSET 0.00112043 5.09927 -9.65472
  CHANNELS 6 Xposition Yposition Zposition Zrotation Xrotation Yrotation
  JOINT abdomen
  {
    OFFSET 0 -1.186 -1.5018
    CHANNELS 3 Zrotation Xrotation Yrotation
    JOINT abdomen2
    {
      OFFSET 0 9.964 0.2134
      CHANNELS 3 Zrotation Xrotation Yrotation
      JOINT chest
      {
        OFFSET 0 13.134 -3.2573
        CHANNELS 3 Zrotation Xrotation Yrotation
        JOINT neck
        {
          OFFSET 0 20.686 -1.6905
          CHANNELS 3 Zrotation Xrotation Yrotation
          JOINT head
          {
            OFFSET 0 7.238 -0.1237
            CHANNELS 3 Zrotation Xrotation Yrotation
            End Site
            {
              OFFSET 0 0 0
            }
          }
        }
        JOINT lCollar
        {
          OFFSET 1.7069 20.075 5.0056
          CHANNELS 3 Zrotation Xrotation Yrotation
          JOINT lShldr
          {
            OFFSET 13.6458 -0.047 -4.849
            CHANNELS 3 Zrotation Xrotation Yrotation
            JOINT lForeArm
            {
              OFFSET 28.3255 -0.9759 2.2888
              CHANNELS 3 Zrotation Xrotation Yrotation
              JOINT lHand
              {
                OFFSET 22.1583 -0.53 10.8316
                CHANNELS 3 Zrotation Xrotation Yrotation
                JOINT lThumb1
                {
                  OFFSET 0.786 0.112 2.5817
                  CHANNELS 3 Zrotation Xrotation Yrotation
                  JOINT lThumb2
                  {
                    OFFSET 0.3601 -0.878 4.2331
                    CHANNELS 3 Zrotation Xrotation Yrotation
                    JOINT lThumb2_End
                    {
                      OFFSET 1.8127 -1.216 2.2227
                      CHANNELS 3 Zrotation Xrotation Yrotation
                      End Site
                      {
                        OFFSET 0.0181 -0.0122 0.0222
                      }
                    }
                  }
                }
                JOINT lCarpal1
                {
                  OFFSET 0.9571 1.114 1.7695
                  CHANNELS 3 Zrotation Xrotation Yrotation
                  JOINT lIndex1
                  {
                    OFFSET 4.1246 0.487 4.1451
                    CHANNELS 3 Zrotation Xrotation Yrotation
                    JOINT lIndex2
                    {
                      OFFSET 3.4052 -1.454 2.7682
                      CHANNELS 3 Zrotation Xrotation Yrotation
                      JOINT lIndex2_End
                      {
                        OFFSET 1.4531 -1.795 1.2713
                        CHANNELS 3 Zrotation Xrotation Yrotation
                        End Site
                        {
                          OFFSET 0.0145 -0.0179 0.0127
                        }
                      }
                    }
                  }
                  JOINT lMid1
                  {
                    OFFSET 5.6954 0.21 2.1184
                    CHANNELS 3 Zrotation Xrotation Yrotation
                    JOINT lMid2
                    {
                      OFFSET 3.9766 -1.54 2.3863
                      CHANNELS 3 Zrotation Xrotation Yrotation
                      JOINT lMid2_End
                      {
                        OFFSET 1.4042 -1.926 1.125
                        CHANNELS 3 Zrotation Xrotation Yrotation
                        End Site
                        {
                          OFFSET 0.014 -0.0193 0.0113
                        }
                      }
                    }
                  }
                }
                JOINT lCarpal2
                {
                  OFFSET 2.0956 0.66 -0.3894
                  CHANNELS 3 Zrotation Xrotation Yrotation
                  JOINT lRing1
                  {
                    OFFSET 5.0395 -0.09 2.4971
                    CHANNELS 3 Zrotation Xrotation Yrotation
                    JOINT lRing2
                    {
                      OFFSET 3.7921 -1.552 1.4806
                      CHANNELS 3 Zrotation Xrotation Yrotation
                      JOINT lRing2_End
                      {
                        OFFSET 1.4655 -1.808 0.9609
                        CHANNELS 3 Zrotation Xrotation Yrotation
                        End Site
                        {
                          OFFSET 0.0147 -0.0181 0.0096
                        }
                      }
                    }
                  }
                  JOINT lPinky1
                  {
                    OFFSET 4.9141 -1.269 0.3591
                    CHANNELS 3 Zrotation Xrotation Yrotation
                    JOINT lPinky2
                    {
                      OFFSET 3.1477 -1.685 0.8462
                      CHANNELS 3 Zrotation Xrotation Yrotation
                      JOINT lPinky2_End
                      {
                        OFFSET 0.8055 -1.585 0.7955
                        CHANNELS 3 Zrotation Xrotation Yrotation
                        End Site
                        {
                          OFFSET 0.0081 -0.0158 0.008
                        }
                      }
                    }
                  }
                }
              }
            }
          }
        }
        JOINT rCollar
        {
          OFFSET -1.7069 20.075 5.0056
          CHANNELS 3 Zrotation Xrotation Yrotation
          JOINT rShldr
          {
            OFFSET -13.6458 -0.047 -4.849
            CHANNELS 3 Zrotation Xrotation Yrotation
            JOINT rForeArm
            {
              OFFSET -28.3255 -0.9759 2.2888
              CHANNELS 3 Zrotation Xrotation Yrotation
              JOINT rHand
              {
                OFFSET -22.1583 -0.53 10.8316
                CHANNELS 3 Zrotation Xrotation Yrotation
                JOINT rThumb1
                {
                  OFFSET -0.786 0.112 2.5817
                  CHANNELS 3 Zrotation Xrotation Yrotation
                  JOINT rThumb2
                  {
                    OFFSET -0.3601 -0.878 4.2331
                    CHANNELS 3 Zrotation Xrotation Yrotation
                    JOINT rThumb2_End
                    {
                      OFFSET -1.8127 -1.216 2.2227
                      CHANNELS 3 Zrotation Xrotation Yrotation
                      End Site
                      {
                        OFFSET -0.0181 -0.0122 0.0222
                      }
                    }
                  }
                }
                JOINT rCarpal1
                {
                  OFFSET -0.9571 1.114 1.7695
                  CHANNELS 3 Zrotation Xrotation Yrotation
                  JOINT rIndex1
                  {
                    OFFSET -4.1246 0.487 4.1451
                    CHANNELS 3 Zrotation Xrotation Yrotation
                    JOINT rIndex2
                    {
                      OFFSET -3.4052 -1.454 2.7682
                      CHANNELS 3 Zrotation Xrotation Yrotation
                      JOINT rIndex2_End
                      {
                        OFFSET -1.4531 -1.795 1.2713
                        CHANNELS 3 Zrotation Xrotation Yrotation
                        End Site
                        {
                          OFFSET -0.0145 -0.018 0.0127
                        }
                      }
                    }
                  }
                  JOINT rMid1
                  {
                    OFFSET -5.6954 0.21 2.1184
                    CHANNELS 3 Zrotation Xrotation Yrotation
                    JOINT rMid2
                    {
                      OFFSET -3.9766 -1.54 2.3863
                      CHANNELS 3 Zrotation Xrotation Yrotation
                      JOINT rMid2_End
                      {
                        OFFSET -1.4042 -1.926 1.125
                        CHANNELS 3 Zrotation Xrotation Yrotation
                        End Site
                        {
                          OFFSET -0.014 -0.0193 0.0113
                        }
                      }
                    }
                  }
                }
                JOINT rCarpal2
                {
                  OFFSET -2.0956 0.66 -0.3894
                  CHANNELS 3 Zrotation Xrotation Yrotation
                  JOINT rRing1
                  {
                    OFFSET -5.0395 -0.09 2.4971
                    CHANNELS 3 Zrotation Xrotation Yrotation
                    JOINT rRing2
                    {
                      OFFSET -3.7921 -1.552 1.4806
                      CHANNELS 3 Zrotation Xrotation Yrotation
                      JOINT rRing2_End
                      {
                        OFFSET -1.4655 -1.808 0.9609
                        CHANNELS 3 Zrotation Xrotation Yrotation
                        End Site
                        {
                          OFFSET -0.0147 -0.0181 0.0096
                        }
                      }
                    }
                  }
                  JOINT rPinky1
                  {
                    OFFSET -4.9141 -1.269 0.3592
                    CHANNELS 3 Zrotation Xrotation Yrotation
                    JOINT rPinky2
                    {
                      OFFSET -3.1477 -1.685 0.8462
                      CHANNELS 3 Zrotation Xrotation Yrotation
                      JOINT rPinky2_End
                      {
                        OFFSET -0.8055 -1.585 0.7955
                        CHANNELS 3 Zrotation Xrotation Yrotation
                        End Site
                        {
                          OFFSET -0.0081 -0.0158 0.008
                        }
                      }
                    }
                  }
                }
              }
            }
          }
        }
      }
    }
  }
  JOINT lThigh
  {
    OFFSET 8.367 -8.2066 0.5982
    CHANNELS 3 Zrotation Xrotation Yrotation
    JOINT lShin
    {
      OFFSET 2.1923 -43.463 -0.4932
      CHANNELS 3 Zrotation Xrotation Yrotation
      JOINT lFoot
      {
        OFFSET 0.7333 -45.8593 -2.6451
        CHANNELS 3 Zrotation Xrotation Yrotation
        End Site
        {
          OFFSET 2.6618 -4.2699 12.3931
        }
      }
    }
  }
  JOINT rThigh
  {
    OFFSET -8.367 -8.2066 0.5982
    CHANNELS 3 Zrotation Xrotation Yrotation
    JOINT rShin
    {
      OFFSET -2.1923 -43.463 -0.4931
      CHANNELS 3 Zrotation Xrotation Yrotation
      JOINT rFoot
      {
        OFFSET -0.7333 -45.8593 -2.6451
        CHANNELS 3 Zrotation Xrotation Yrotation
        End Site
        {
          OFFSET -2.6618 -4.2699 12.3931
        }
      }
    }
  }
}
MOTION
Frames:	4
Frame Time:	0.0333333
0.78061 17.5904 1.57129 173.405 -88.2826 -6.38877 -0.0937328 -3.60124 -0.280043 -0.205752 -7.20198 -0.567689 -0.205752 -7.20195 -0.56769 7.00798 -2.93421 -4.64099 -6.6245e-007 -13.086 4.11124e-007 10.55 6.08124 -17.0441 -15.4226 -17.9727 -25.3788 3.24862 7.18388 -29.9006 57.2056 -19.8536 4.99878 -3.18055e-015 3.57812e-015 3.18055e-015 -3.18055e-015 3.57812e-015 -0 -4.77083e-015 4.37326e-015 -3.18055e-015 -1.59028e-015 3.97569e-016 3.18055e-015 -1.59028e-015 2.3059e-014 2.54444e-014 -1.59028e-015 2.78299e-015 -0 -1.59028e-015 3.57812e-015 -0 -1.59028e-015 2.3059e-014 2.54444e-014 -1.59028e-015 2.78299e-015 -0 -1.59028e-015 3.57812e-015 -0 -1.59028e-015 3.97569e-016 3.18055e-015 -1.59028e-015 2.3059e-014 2.54444e-014 -1.59028e-015 2.78299e-015 -0 -1.59028e-015 3.57812e-015 -0 -1.59028e-015 2.3059e-014 2.54444e-014 -1.59028e-015 2.78299e-015 -0 -1.59028e-015 3.57812e-015 -0 22.6221 3.46904 2.47847 7.21567 8.19208 36.9213 -12.3551 -14.5943 9.30574 -56.3333 -17.2208 -7.06632 -1.59028e-015 -1.59028e-015 9.54166e-015 1.59028e-015 -3.18055e-015 3.18055e-015 8.82781e-031 -3.18055e-015 1.59028e-014 -8.82781e-032 -1.59028e-015 -3.18055e-015 2.64834e-031 -1.59028e-015 9.54166e-015 1.59028e-015 1.59028e-015 9.54166e-015 -0 0 1.90833e-014 2.64834e-031 -1.59028e-015 9.54166e-015 1.59028e-015 1.59028e-015 9.54166e-015 -0 0 1.90833e-014 -8.82781e-032 -1.59028e-015 -3.18055e-015 2.64834e-031 -1.59028e-015 9.54166e-015 1.59028e-015 1.59028e-015 9.54166e-015 -0 0 1.90833e-014 2.64834e-031 -1.59028e-015 9.54166e-015 1.59028e-015 1.59028e-015 9.54166e-015 -0 0 1.90833e-014 10.7107 -35.9184 23.8568 -3.60123 29.6737 2.37726 3.3216 59.8558 -5.82636 -11.5548 -36.8059 -24.3982 3.7764 31.3748 -2.19456 -3.28877 60.2492 5.91717 
0.779701 17.6368 1.7025 175.356 -87.4295 -4.4277 -0.0923762 -3.67711 -0.280748 -0.20348 -7.35364 -0.569215 -0.20348 -7.35366 -0.569215 7.011 -3.38533 -4.58548 7.47615e-007 -13.1526 -1.29228e-006 10.7942 5.6853 -16.5953 -15.4979 -17.9285 -25.5076 3.2403 7.16776 -30.3976 57.27 -19.7568 5.34898 -4.77083e-015 -1.59028e-015 6.36111e-015 6.62086e-032 -1.19271e-015 3.18055e-015 -1.59028e-015 -1.59028e-015 6.36111e-015 -3.18055e-015 -7.95139e-016 6.36111e-015 -4.77083e-015 0 3.18055e-015 -1.59028e-015 -1.59028e-015 6.36111e-015 4.41391e-032 -7.95139e-016 3.18055e-015 -4.77083e-015 0 3.18055e-015 -1.59028e-015 -1.59028e-015 6.36111e-015 4.41391e-032 -7.95139e-016 3.18055e-015 -3.18055e-015 -7.95139e-016 6.36111e-015 -4.77083e-015 0 3.18055e-015 -1.59028e-015 -1.59028e-015 6.36111e-015 4.41391e-032 -7.95139e-016 3.18055e-015 -4.77083e-015 0 3.18055e-015 -1.59028e-015 -1.59028e-015 6.36111e-015 4.41391e-032 -7.95139e-016 3.18055e-015 22.4112 3.25992 2.25549 7.2533 8.23248 37.1586 -12.3844 -14.6313 9.57147 -56.437 -17.2743 -7.32725 -1.59028e-015 0 3.18055e-015 -5.04083e-007 -8.55266e-007 1.15861e-006 3.18055e-015 -4.77083e-015 -1.27222e-014 -1.59028e-015 0 3.18055e-015 -4.77083e-015 1.59028e-015 6.36111e-015 -5.04083e-007 -8.55266e-007 1.15861e-006 1.59028e-015 -4.77083e-015 -0 -4.77083e-015 1.59028e-015 6.36111e-015 -5.04083e-007 -8.55266e-007 1.15861e-006 1.59028e-015 -4.77083e-015 -0 -1.59028e-015 0 3.18055e-015 -4.77083e-015 1.59028e-015 6.36111e-015 -5.04083e-007 -8.55266e-007 1.15861e-006 1.59028e-015 -4.77083e-015 -0 -4.77083e-015 1.59028e-015 6.36111e-015 -5.04083e-007 -8.55266e-007 1.15861e-006 1.59028e-015 -4.77083e-015 -0 11.0969 -37.0356 24.5463 -3.60427 30.0405 2.38782 3.94195 59.8096 -6.44387 -11.9325 -37.8888 -25.1113 3.76073 31.688 -2.19394 -3.93978 60.2291 6.55531 
0.7788 17.6837 1.83471 176.333 -86.5751 -3.44238 -0.0910106 -3.75291 -0.281429 -0.201189 -7.50526 -0.570689 -0.201189 -7.50529 -0.570689 7.01452 -3.83619 -4.52991 -1.38405e-007 -13.2192 1.37621e-006 11.0414 5.29145 -16.1452 -15.573 -17.8841 -25.6364 3.23183 7.15172 -30.8945 57.3335 -19.6596 5.69881 2.20695e-032 3.97569e-016 -3.18055e-015 -0 0 3.18055e-015 4.41391e-032 -7.95139e-016 3.18055e-015 2.20695e-032 3.97569e-016 -3.18055e-015 -6.36111e-015 -3.97569e-016 9.54166e-015 -2.20695e-032 3.97569e-016 3.18055e-015 -1.59028e-015 7.95139e-016 -0 -6.36111e-015 -3.97569e-016 9.54166e-015 -2.20695e-032 3.97569e-016 3.18055e-015 -1.59028e-015 7.95139e-016 -0 2.20695e-032 3.97569e-016 -3.18055e-015 -6.36111e-015 -3.97569e-016 9.54166e-015 -2.20695e-032 3.97569e-016 3.18055e-015 -1.59028e-015 7.95139e-016 -0 -6.36111e-015 -3.97569e-016 9.54166e-015 -2.20695e-032 3.97569e-016 3.18055e-015 -1.59028e-015 7.95139e-016 -0 22.1996 3.0517 2.03178 7.29077 8.27308 37.3959 -12.4134 -14.6684 9.83722 -56.541 -17.3274 -7.58836 2.64834e-031 4.77083e-015 -3.18055e-015 -8.06138e-007 2.58362e-007 -1.10726e-007 -0 -1.59028e-015 -0 -1.59028e-015 1.59028e-015 -3.18055e-015 -7.95139e-015 3.18055e-015 9.54166e-015 -8.06138e-007 2.58362e-007 -1.10726e-007 0 0 -0 -7.95139e-015 3.18055e-015 9.54166e-015 -8.06138e-007 2.58362e-007 -1.10726e-007 0 0 -0 -1.59028e-015 1.59028e-015 -3.18055e-015 -7.95139e-015 3.18055e-015 9.54166e-015 -8.06138e-007 2.58362e-007 -1.10726e-007 0 0 -0 -7.95139e-015 3.18055e-015 9.54166e-015 -8.06138e-007 2.58362e-007 -1.10726e-007 0 0 -0 11.5046 -38.1479 25.2547 -3.60718 30.4064 2.39837 4.56048 59.7604 -7.05937 -12.3317 -38.9667 -25.8432 3.7447 32 -2.19306 -4.5896 60.2046 7.1921 
0.777901 17.7312 1.96791 176.917 -85.7205 -2.84891 -0.0896423 -3.82865 -0.282119 -0.198895 -7.65677 -0.572179 -0.198895 -7.6568 -0.572179 7.01837 -4.28768 -4.47427 1.46935e-006 -13.2857 4.22471e-007 11.2915 4.8996 -15.6937 -15.648 -17.8396 -25.7651 3.22321 7.13575 -31.3913 57.3966 -19.5621 6.04831 -1.59028e-015 3.97569e-015 -0 -1.59028e-015 3.18055e-015 3.18055e-015 0 1.98785e-015 -0 0 1.59028e-015 -0 -4.77083e-015 1.19271e-015 2.22639e-014 -1.59028e-015 3.97569e-015 -6.36111e-015 3.18055e-015 4.37326e-015 -6.36111e-015 -4.77083e-015 1.19271e-015 2.22639e-014 -1.59028e-015 3.97569e-015 -6.36111e-015 3.18055e-015 4.37326e-015 -6.36111e-015 0 1.59028e-015 -0 -4.77083e-015 1.19271e-015 2.22639e-014 -1.59028e-015 3.97569e-015 -6.36111e-015 3.18055e-015 4.37326e-015 -6.36111e-015 -4.77083e-015 1.19271e-015 2.22639e-014 -1.59028e-015 3.97569e-015 -6.36111e-015 3.18055e-015 4.37326e-015 -6.36111e-015 21.9873 2.84428 1.80738 7.32807 8.31376 37.6332 -12.4423 -14.7057 10.103 -56.6453 -17.38 -7.84961 0 0 -0 -1.59028e-015 0 9.54166e-015 1.59028e-015 0 9.54166e-015 1.59028e-015 1.59028e-015 -0 -3.18055e-015 1.59028e-015 9.54166e-015 -0 0 9.54166e-015 -0 0 9.54166e-015 -3.18055e-015 1.59028e-015 9.54166e-015 -0 0 9.54166e-015 -0 0 9.54166e-015 1.59028e-015 1.59028e-015 -0 -3.18055e-015 1.59028e-015 9.54166e-015 -0 0 9.54166e-015 -0 0 9.54166e-015 -3.18055e-015 1.59028e-015 9.54166e-015 -0 0 9.54166e-015 -0 0 9.54166e-015 11.935 -39.2549 25.9832 -3.61005 30.7719 2.40895 5.17708 59.7078 -7.67274 -12.7538 -40.0394 -26.5951 3.72843 32.3115 -2.19206 -5.23856 60.177 7.82783 
